<svg xmlns="http://www.w3.org/2000/svg" viewBox="0 0 1080 1080"><defs><clipPath id="clippath"><path d="M990 990c0-248.53-201.47-450-450-450S90 741.47 90 990z" class="cls-3"/></clipPath><clipPath id="clippath-1"><path d="M720 720h315v315H720z" class="cls-6"/></clipPath><clipPath id="clippath-2"><path d="M719.71 540h315v180h-315z" class="cls-6"/></clipPath><clipPath id="clippath-3"><path d="M292.5 90H720v225H292.5z" class="cls-3"/></clipPath><clipPath id="clippath-4"><path d="M989.98 337.53v179.94h-89.97V337.53z" class="cls-12"/></clipPath><clipPath id="clippath-5"><path d="M922.56 337.54v179.94h-89.97V337.54z" class="cls-12"/></clipPath><clipPath id="clippath-6"><path d="M854.98 337.53v179.94h-89.97V337.53z" class="cls-12"/></clipPath><clipPath id="clippath-7"><rect width="315" height="450" x="382.5" y="517.5" class="cls-14" rx="14.3" ry="14.3" transform="rotate(90 540 742.5)"/></clipPath><clipPath id="clippath-9"><rect width="405" height="225" x="337.5" y="607.5" class="cls-12" rx="10" ry="10"/></clipPath><style>.cls-10,.cls-11,.cls-12,.cls-14,.cls-16,.cls-19,.cls-2,.cls-20,.cls-22,.cls-23,.cls-24,.cls-25,.cls-26,.cls-28,.cls-29,.cls-3,.cls-30,.cls-5,.cls-6,.cls-9{stroke-width:4px}.cls-10,.cls-11,.cls-12,.cls-14,.cls-16,.cls-19,.cls-22,.cls-23,.cls-25,.cls-3,.cls-6{stroke-miterlimit:10}.cls-20,.cls-23{fill:none}.cls-3,.cls-32{fill:#c8dafc}.cls-10,.cls-11,.cls-12,.cls-14,.cls-16,.cls-19,.cls-2,.cls-20,.cls-22,.cls-23,.cls-24,.cls-25,.cls-26,.cls-29,.cls-3,.cls-30,.cls-5,.cls-6,.cls-9{stroke:#0c322c}.cls-2,.cls-20,.cls-24,.cls-26,.cls-28,.cls-29,.cls-30,.cls-5,.cls-9{stroke-linejoin:round}.cls-2,.cls-24,.cls-25{fill:#2453ff}.cls-14{fill:#efefef}.cls-16,.cls-5{fill:#30ba78}.cls-12,.cls-36{fill:#90ebcd}.cls-37,.cls-6{fill:#bff1ea}.cls-20,.cls-24,.cls-26,.cls-28,.cls-29{stroke-linecap:round}.cls-22{fill:#0c322c}.cls-19,.cls-30{fill:#fff}.cls-10,.cls-9{fill:#fe7c3f}.cls-11{fill:#bd3314}.cls-29{fill:#ff5a2b}.cls-26{fill:#e6edfe}.cls-28{fill:#eafaf4;stroke:#eafaf4}</style></defs><g id="BG"><path d="M590.44 282.11c0-22.51 18.25-40.76 40.76-40.76 6.82 0 13.23 1.69 18.87 4.65 4.38-19.13 21.48-33.41 41.94-33.41 1.18 0 2.34.08 3.49.18-.96-3.57-1.52-7.31-1.52-11.19 0-23.78 19.28-43.06 43.06-43.06 7.02 0 13.62 1.71 19.47 4.69 7.25-29.11 33.49-50.71 64.84-50.71 29.92 0 55.24 19.65 63.79 46.74 2.73-.43 5.51-.72 8.36-.72 27.06 0 49.33 20.32 52.5 46.52 2.41-.3 4.84-.5 7.33-.5 32.68 0 59.17 26.49 59.17 59.17 0 10.46-2.72 20.27-7.48 28.79H591.78c-.87-3.32-1.34-6.8-1.34-10.39" style="stroke-width:4px;stroke:#0c322c;stroke-linejoin:round;stroke-linecap:round;fill:#fff"/><path d="M90 630h315v360H90z" class="cls-6"/><path d="M990 990c0-248.53-201.47-450-450-450S90 741.47 90 990z" class="cls-32"/><path d="M90 630h315v360H90z" class="cls-3" style="clip-path:url(#clippath)"/><path d="M990 990c0-248.53-201.47-450-450-450S90 741.47 90 990z" class="cls-23"/><path d="M720 720h315v315H720z" class="cls-37"/><g style="clip-path:url(#clippath-1)"><path d="M990 990c0-248.53-201.47-450-450-450S90 741.47 90 990z" class="cls-6"/><path d="M990 990c0 248.53-201.47 450-450 450S90 1238.53 90 990z" class="cls-3"/></g><path d="M720 720h315v315H720z" class="cls-23"/><path d="M90 540h315v90H90zM90 315h315v225H90zM719.71 315h315v225h-315z" class="cls-6"/><path d="M719.71 540h315v180h-315z" class="cls-37"/><g style="clip-path:url(#clippath-2)"><path d="M990 990c0-248.53-201.47-450-450-450S90 741.47 90 990z" class="cls-6"/><path d="M990 990c0 248.53-201.47 450-450 450S90 1238.53 90 990z" class="cls-3"/></g><path d="M719.71 540h315v180h-315z" class="cls-23"/><path d="M90 90h202.5v225H90z" class="cls-3"/><path d="M292.5 90H720v225H292.5z" class="cls-32"/><g style="clip-path:url(#clippath-3)"><path d="m630 45-90 90-22.5-22.5-135 135-45-45-45 45V315H675V90z" style="stroke-width:4px;stroke:#0c322c;stroke-linejoin:round;stroke-linecap:round;fill:#81aefc"/><path d="M720 45 517.5 247.5 495 225l-45 45-22.5-22.5L360 315h360z" class="cls-24"/><path d="M590.44 282.11c0-22.51 18.25-40.76 40.76-40.76 6.82 0 13.23 1.69 18.87 4.65 4.38-19.13 21.48-33.41 41.94-33.41 1.18 0 2.34.08 3.49.18-.96-3.57-1.52-7.31-1.52-11.19 0-23.78 19.28-43.06 43.06-43.06 7.02 0 13.62 1.71 19.47 4.69 7.25-29.11 33.49-50.71 64.84-50.71 29.92 0 55.24 19.65 63.79 46.74 2.73-.43 5.51-.72 8.36-.72 27.06 0 49.33 20.32 52.5 46.52 2.41-.3 4.84-.5 7.33-.5 32.68 0 59.17 26.49 59.17 59.17 0 10.46-2.72 20.27-7.48 28.79H591.78c-.87-3.32-1.34-6.8-1.34-10.39" class="cls-26"/></g><path d="M292.5 90H720v225H292.5z" class="cls-23"/></g><g id="Graphic"><path d="M112.5 337.5h270v11.25h-270zM112.5 596.25h270v11.25h-270z" class="cls-22"/><path d="M112.5 348.75h270v247.5h-270z" class="cls-16"/><path d="M247.5 472.5h112.48c0 61.7-50.77 112.48-112.48 112.48S135.02 534.21 135.02 472.5c0-51.66 35.59-96.99 85.77-109.26z" style="stroke-width:4px;stroke:#0c322c;stroke-linejoin:round;fill:#90ebcd"/><path d="m247.5 472.5 51.55-99.97a112.46 112.46 0 0 1 60.5 90.2l-112.05 9.76Z" class="cls-2"/><path d="m247.5 472.5-15.04-111.47c4.99-.67 10.01-1.01 15.04-1.01 12.74 0 25.38 2.16 37.4 6.4z" class="cls-9"/><path d="M989.98 337.53v179.94h-89.97V337.53z" class="cls-36"/><g style="clip-path:url(#clippath-4)"><path d="M959.99 517.47c0-16.56 13.43-29.99 29.99-29.99s29.99 13.43 29.99 29.99-13.43 29.99-29.99 29.99-29.99-13.43-29.99-29.99Zm-59.98 29.99c16.56 0 29.99-13.43 29.99-29.99s-13.43-29.99-29.99-29.99-29.99 13.43-29.99 29.99 13.43 29.99 29.99 29.99Zm89.97-179.94c16.56 0 29.99-13.43 29.99-29.99s-13.43-29.99-29.99-29.99-29.99 13.43-29.99 29.99 13.43 29.99 29.99 29.99Zm-89.97 0c16.56 0 29.99-13.43 29.99-29.99s-13.43-29.99-29.99-29.99-29.99 13.43-29.99 29.99 13.43 29.99 29.99 29.99Z" class="cls-16"/><circle cx="945" cy="427.5" r="29.99" class="cls-16"/></g><path d="M989.98 337.53v179.94h-89.97V337.53z" class="cls-23"/><path d="M922.56 337.54v179.94h-89.97V337.54z" class="cls-36"/><g style="clip-path:url(#clippath-5)"><path d="M892.57 517.47c0-16.56 13.43-29.99 29.99-29.99s29.99 13.43 29.99 29.99-13.43 29.99-29.99 29.99-29.99-13.43-29.99-29.99Zm-59.98 29.99c16.56 0 29.99-13.43 29.99-29.99s-13.43-29.99-29.99-29.99-29.99 13.43-29.99 29.99 13.43 29.99 29.99 29.99Zm89.97-179.94c16.56 0 29.99-13.43 29.99-29.99s-13.43-29.99-29.99-29.99-29.99 13.43-29.99 29.99 13.43 29.99 29.99 29.99Zm-89.97 0c16.56 0 29.99-13.43 29.99-29.99s-13.43-29.99-29.99-29.99-29.99 13.43-29.99 29.99 13.43 29.99 29.99 29.99Z" class="cls-16"/><circle cx="877.57" cy="427.5" r="29.99" class="cls-16"/></g><path d="M922.56 337.54v179.94h-89.97V337.54z" class="cls-23"/><path d="M854.98 337.53v179.94h-89.97V337.53z" class="cls-36"/><g style="clip-path:url(#clippath-6)"><path d="M824.99 517.47c0-16.56 13.43-29.99 29.99-29.99s29.99 13.43 29.99 29.99-13.43 29.99-29.99 29.99-29.99-13.43-29.99-29.99Zm-59.98 29.99c16.56 0 29.99-13.43 29.99-29.99s-13.43-29.99-29.99-29.99-29.99 13.43-29.99 29.99 13.43 29.99 29.99 29.99Zm89.97-179.94c16.56 0 29.99-13.43 29.99-29.99s-13.43-29.99-29.99-29.99-29.99 13.43-29.99 29.99 13.43 29.99 29.99 29.99Zm-89.97 0c16.56 0 29.99-13.43 29.99-29.99s-13.43-29.99-29.99-29.99-29.99 13.43-29.99 29.99 13.43 29.99 29.99 29.99Z" class="cls-16"/><circle cx="810" cy="427.5" r="29.99" class="cls-16"/></g><path d="M854.98 337.53v179.94h-89.97V337.53z" class="cls-23"/><path d="M607.5 967.5h-135L495 900h90z" class="cls-14"/><path d="M405.29 967.5h269.42c0 12.42-10.08 22.5-22.5 22.5H427.79c-12.42 0-22.5-10.08-22.5-22.5Z" class="cls-19"/><rect width="315" height="450" x="382.5" y="517.5" rx="14.3" ry="14.3" style="fill:#efefef" transform="rotate(90 540 742.5)"/><g style="clip-path:url(#clippath-7)"><path d="M287.71 564h504v291h-504z" style="fill:#2453ff"/><path d="M287.71 564h504v291h-504z" class="cls-23"/></g><rect width="315" height="450" x="382.5" y="517.5" class="cls-23" rx="14.3" ry="14.3" transform="rotate(90 540 742.5)"/><rect width="405" height="225" x="337.5" y="607.5" class="cls-36" rx="10" ry="10"/><g style="clip-path:url(#clippath-9)"><path d="M315 821.25h450v11.25H315zM315 607.5h450v11.25H315z" class="cls-22"/></g><rect width="405" height="225" x="337.5" y="607.5" class="cls-23" rx="10" ry="10"/><path d="M360 630h225v11.25H360z" class="cls-22"/><path d="M360 641.25h225V720H360z" class="cls-16"/><path d="M360 720h225v11.25H360z" class="cls-22"/><path d="M360 731.25h225V810H360zM607.5 641.25H720V720H607.5z" class="cls-16"/><path d="M607.5 630H720v11.25H607.5z" class="cls-22"/><path d="M607.5 731.25H720V810H607.5z" class="cls-16"/><path d="M607.5 720H720v11.25H607.5z" class="cls-22"/><path d="m382.5 697.5 45-11.25L450 675l22.5 22.5 22.5-11.25 22.5 11.25 22.5-11.25 22.5-33.75" style="stroke-width:4px;stroke-miterlimit:10;fill:none;stroke:#192072"/><path d="M382.5 708.75 405 697.5l22.5-22.5 22.5-11.25L472.5 675l22.5-22.5 22.5 22.5 22.5 33.75L562.5 675" style="stroke-width:4px;stroke-miterlimit:10;fill:none;stroke:#2453ff"/><path d="m382.5 787.5 43.03-10.76c1.31-.33 2.58-.8 3.78-1.4l8.76-4.38a18.51 18.51 0 0 1 21.35 3.46l3.65 3.65a18.49 18.49 0 0 0 21.35 3.46l2.31-1.15c5.21-2.6 11.33-2.6 16.54 0l5.96 2.98c5.21 2.6 11.33 2.6 16.54 0l9.84-4.92c2.88-1.44 5.33-3.6 7.12-6.28l19.78-29.66" style="stroke:#bd3314;stroke-width:4px;stroke-miterlimit:10;fill:none"/><path d="m382.5 798.75 19.82-9.91c1.78-.89 3.4-2.06 4.81-3.46l18.26-18.26c1.41-1.41 3.03-2.58 4.81-3.46l11.55-5.77c5.21-2.6 11.33-2.6 16.54 0l2.31 1.15a18.51 18.51 0 0 0 21.35-3.46c7.22-7.22 18.93-7.22 26.15 0l8.13 8.13c.86.86 1.64 1.81 2.31 2.82l6.1 9.15c7.32 10.98 23.45 10.98 30.77 0l7.11-10.67" style="stroke-width:4px;stroke-miterlimit:10;fill:none;stroke:#fe7c3f"/><path d="M618.75 770.63h22.5v28.12h-22.5z" class="cls-10"/><path d="M641.25 742.5h22.5v56.25h-22.5z" class="cls-11"/><path d="M663.75 770.63h22.5v28.12h-22.5z" class="cls-25"/><path d="M686.25 742.5h22.5v56.25h-22.5z" style="stroke-width:4px;stroke-miterlimit:10;stroke:#0c322c;fill:#192072"/><path d="M618.75 652.5h45v56.25h-45z" class="cls-10"/><path d="M663.75 652.5h45v56.25h-45z" class="cls-25"/><path d="M810.08 900H855v90h-44.92zM742.54 922.5h44.92V990h-44.92zM877.54 877.5h44.92V990h-44.92zM945.04 787.5h44.92V990h-44.92z" class="cls-5"/><path d="M798.75 911.25h33.76v11.25h-33.76zM732.53 933.75h33.76V945h-33.76zM866.24 888.75H900V900h-33.76zM933.74 798.75h33.76V810h-33.76z" class="cls-30"/><path d="M742.54 967.5h44.92V990h-44.92zM810.04 967.5h44.92V990h-44.92zM877.54 945.08h44.92V990h-44.92zM945.04 922.5h44.92V990h-44.92z" class="cls-9"/><path d="M945.04 967.5h44.92V990h-44.92zM877.54 978.75h44.92V990h-44.92z" class="cls-2"/><path d="M787.42 742.5H922.5v-135H787.42v44.96l-30.21 22.5 30.21 22.5z" class="cls-19"/><ellipse cx="855" cy="686.72" class="cls-11" rx="23.32" ry="23.44"/><ellipse cx="855" cy="675" rx="23.32" ry="23.44" style="stroke-width:4px;stroke-miterlimit:10;stroke:#0c322c;fill:#ff5a2b"/><ellipse cx="855" cy="663.28" class="cls-10" rx="23.32" ry="23.44"/><path d="M136.07 956.24V749.23" class="cls-23"/><circle cx="147.32" cy="793.93" r="11.27" class="cls-12"/><circle cx="136.05" cy="743.43" r="11.27" class="cls-10"/><circle cx="147.32" cy="827.67" r="11.27" class="cls-12"/><circle cx="147.32" cy="861.42" r="11.27" class="cls-12"/><circle cx="147.32" cy="895.19" r="11.27" class="cls-12"/><circle cx="124.82" cy="810.79" r="11.27" class="cls-12"/><circle cx="124.82" cy="844.54" r="11.27" class="cls-12"/><circle cx="124.82" cy="878.31" r="11.27" class="cls-12"/><circle cx="124.82" cy="912.06" r="11.27" class="cls-12"/><circle cx="124.82" cy="774.49" r="11.27" class="cls-12"/><path d="M111.41 945h47.17v44.13h-47.17z" class="cls-16"/><path d="M180 900h90v90h-90z" class="cls-19"/><path d="M197.88 965.88v9.81h54.24v-9.81M197.88 929.47V919M252.12 929.47V919M270 922.5h22.5v45H270zM192.5 878.31c0-15.78 20-15.78 20-31.57s-20-15.79-20-31.57c0-15.79 20-15.79 20-31.57s-20-15.79-20-31.57 20-15.79 20-31.57M215.38 878.31c0-15.78 20-15.78 20-31.57s-20-15.79-20-31.57 20-15.79 20-31.57-20-15.79-20-31.57 20-15.79 20-31.57M237.5 878.31c0-15.78 20-15.78 20-31.57s-20-15.79-20-31.57 20-15.79 20-31.57-20-15.79-20-31.57 20-15.79 20-31.57" class="cls-23"/><rect width="180" height="202.36" x="101.25" y="101.32" rx="14.5" ry="14.5" style="stroke-width:4px;stroke:#0c322c;stroke-linejoin:round;stroke-linecap:round;fill:#ffb184"/><path d="M123.08 123.68h135.67v22.51H123.08z" style="stroke-width:4px;stroke:#0c322c;stroke-linejoin:round;stroke-linecap:round;fill:#0c322c"/><path d="M123.75 168.68h22.5v22.5h-22.5zM157.5 168.68H180v22.5h-22.5zM191.25 168.68h22.5v22.5h-22.5zM123.75 202.43h22.5v22.5h-22.5zM157.5 202.43H180v22.5h-22.5zM191.25 202.43h22.5v22.5h-22.5zM123.75 236.18h22.5v22.5h-22.5zM157.5 236.18H180v22.5h-22.5zM191.25 236.18h22.5v22.5h-22.5z" class="cls-29"/><path d="M123.75 269.93h22.5v11.18h-22.5zM157.5 269.93H180v11.18h-22.5zM191.25 269.93h22.5v11.18h-22.5zM236.25 168.68h22.5v22.5h-22.5zM236.25 236.18h22.5v45h-22.5zM236.25 202.43h22.5v22.5h-22.5z" class="cls-24"/><path d="M247.5 128.46v14.27M254.64 135.59h-14.27M225 128.46v14.27M232.14 135.59h-14.27M202.5 128.46v14.27M209.64 135.59h-14.27" class="cls-28"/><path d="M607 45h23v23" class="cls-20"/><path d="M382.5 382.5H495M382.5 416.25H495M382.5 484.43H495" class="cls-25"/><path d="M540 337.5h112.5V360H540zM495 371.25h157.5v22.5H495z" class="cls-10"/><path d="M495 405h157.5v22.5H495z" class="cls-25"/><path d="M495 472.5h157.5V495H495z" class="cls-12"/><path d="M528.75 348.75H517.5V360" class="cls-23"/><path d="M540 438.75h112.5v22.5H540z" class="cls-12"/><path d="M528.75 450H517.5v11.25" class="cls-23"/><path d="M495 180c0-12.43-10.07-22.5-22.5-22.5-5.99 0-11.43 2.35-15.47 6.17a33.9 33.9 0 0 0-7.12-8.89c-1.41-23.58-20.97-42.27-44.91-42.27-24.85 0-45 20.15-45 45-12.43 0-22.5 10.07-22.5 22.5H495Z" class="cls-19"/><path d="m630 45-45 45" class="cls-26"/><path d="M697 45h23v23" class="cls-20"/><path d="m720 45-45 45" class="cls-26"/></g></svg>