<svg xmlns="http://www.w3.org/2000/svg" viewBox="0 0 1080 1080"><defs><clipPath id="clippath"><circle cx="776.25" cy="776.26" r="236.24" class="cls-12"/></clipPath><clipPath id="clippath-1"><path d="M90 495h540v45.02H90z" class="cls-2"/></clipPath><clipPath id="clippath-2"><rect width="168.75" height="270" x="298.12" y="703.12" class="cls-13" rx="8.11" ry="8.11" transform="rotate(90 382.5 838.12)"/></clipPath><clipPath id="clippath-4"><path d="M585 135c0 24.79-20.01 67.5-157.5 67.5H315c-72.19 0-180.38-25.21-180-67.5-.38-42.29 107.81-67.5 180-67.5h112.5C564.99 67.5 585 110.21 585 135Z" class="cls-3"/></clipPath><clipPath id="clippath-5"><path d="m258.75 112.5-45-45h-45v45z" class="cls-16"/></clipPath><clipPath id="clippath-6"><path d="m258.75 157.5-45 45h-45v-45z" class="cls-16"/></clipPath><clipPath id="clippath-7"><rect width="134.93" height="22.5" x="315.07" y="821.27" class="cls-17" rx="10.21" ry="10.21"/></clipPath><style>.cls-2{fill:#c8dafc}.cls-10,.cls-11,.cls-12,.cls-13,.cls-14,.cls-16,.cls-17,.cls-18,.cls-19,.cls-2,.cls-20,.cls-21,.cls-3,.cls-4,.cls-8,.cls-9{stroke-miterlimit:10;stroke-width:4px}.cls-10,.cls-11,.cls-12,.cls-13,.cls-16,.cls-17,.cls-18,.cls-19,.cls-2,.cls-20,.cls-21,.cls-3,.cls-8,.cls-9{stroke:#0c322c}.cls-3{fill:#008657}.cls-13{fill:#efefef}.cls-20,.cls-4{fill:none}.cls-14,.cls-4{stroke:#2453ff}.cls-12,.cls-25{fill:#90ebcd}.cls-10{fill:#fe7c3f}.cls-16,.cls-26{fill:#30ba78}.cls-8{fill:#bff1ea}.cls-9{fill:#42d29f}.cls-17{fill:#fff}.cls-11{fill:#0b41b7}.cls-14,.cls-21{fill:#2453ff}.cls-18{fill:#0c322c}.cls-19{fill:#81aefc}</style></defs><g id="BG"><path d="M540 540.04h90v449.94h-90z" class="cls-13"/><path d="M45 495h225v225H45z" class="cls-12"/><circle cx="776.25" cy="776.26" r="236.24" class="cls-25"/><path d="M540 540.05h90v449.94h-90z" class="cls-13" style="clip-path:url(#clippath)"/><circle cx="776.25" cy="776.26" r="236.24" class="cls-20"/><circle cx="776.25" cy="776.26" r="189" class="cls-18"/><path d="M360.56 495h180v225h-180zM270 765h180v225H270z" class="cls-2"/><path d="M225 719.98h315v270H225z" class="cls-8"/><path d="M990 315v180H630V315z" class="cls-2"/><path d="M90 224.76h540v90.25H90z" class="cls-8"/><path d="M90 135h540v90.13H90zM90 315h540v180H90z" class="cls-2"/><path d="M90 495h540v45.02H90z" style="fill:#c8dafc"/><g style="clip-path:url(#clippath-1)"><path d="M90 495h180v225H90z" class="cls-12"/><path d="M360.56 495h180v225h-180z" class="cls-2"/></g><path d="M90 495h540v45.02H90z" class="cls-20"/><path d="M630 495h360v45.02H630z" class="cls-2"/><path d="M270 495h90v225h-90z" class="cls-18"/></g><g id="Graphic"><path d="M776.25 918.12c78.34 0 141.84-63.51 141.84-141.84 0-68.55-48.62-125.73-113.26-138.96" style="stroke-miterlimit:10;stroke-width:4px;fill:none;stroke:#fe7c3f"/><path d="M270 281.25 251.85 270H225v67.5h90v-56.25z" class="cls-10"/><path d="M225 292.5h90v56.25h-90z" class="cls-16"/><path d="M776.25 634.43c-78.34 0-141.84 63.51-141.84 141.84 0 68.55 48.62 125.73 113.26 138.96" class="cls-4"/><path d="m270 315-18.15-11.25H225v67.5h90V315z" class="cls-10"/><path d="M225 326.25h90v56.25h-90z" class="cls-16"/><path d="m157.5 945.05-18.15-11.25H112.5v67.5h90v-56.25z" class="cls-21"/><path d="M112.5 956.3h90v56.25h-90z" class="cls-16"/><path d="M405.18 922.49h-45.36c0 12.43-10.07 22.5-22.5 22.5h-22.5v11.25h135.36v-11.25h-22.5c-12.43 0-22.5-10.07-22.5-22.5Z" class="cls-13"/><rect width="168.75" height="270" x="298.12" y="703.12" rx="8.11" ry="8.11" style="fill:#efefef" transform="rotate(90 382.5 838.12)"/><g style="clip-path:url(#clippath-2)"><path d="M247.5 742.49h270v157.5h-270z" class="cls-25"/><path d="M247.5 742.49h270v157.5h-270z" class="cls-20"/></g><rect width="168.75" height="270" x="298.12" y="703.12" class="cls-20" rx="8.11" ry="8.11" transform="rotate(90 382.5 838.12)"/><rect width="22.5" height="11.25" x="371.25" y="764.98" class="cls-10" rx="5.63" ry="5.63"/><path d="M101.25 517.54h112.5v44.99h-112.5z" class="cls-16"/><path d="M112.88 562.53h90v22.51h-90zM112.88 630.04h90v22.51h-90z" class="cls-18"/><circle cx="123.64" cy="540.03" r="11.25" class="cls-10"/><circle cx="148.41" cy="540.03" r="2.81" class="cls-18"/><circle cx="165.29" cy="540.03" r="2.81" class="cls-18"/><path d="M101.25 585.05h112.5v44.99h-112.5zM101.25 652.55h112.5v44.99h-112.5z" class="cls-16"/><path d="M179.89 534.43h22.5v11.24h-22.5z" class="cls-3"/><circle cx="123.64" cy="607.53" r="11.25" class="cls-17"/><circle cx="148.41" cy="607.53" r="2.81" class="cls-18"/><circle cx="165.29" cy="607.53" r="2.81" class="cls-18"/><path d="M179.89 601.93h22.5v11.24h-22.5z" class="cls-3"/><circle cx="123.64" cy="675.04" r="11.25" class="cls-17"/><circle cx="148.41" cy="675.04" r="2.81" class="cls-18"/><circle cx="165.29" cy="675.04" r="2.81" class="cls-18"/><path d="M179.89 669.44h22.5v11.24h-22.5z" class="cls-3"/><path d="M393.93 517.51h112.5v44.99h-112.5z" class="cls-21"/><path d="M405.56 562.5h90v22.51h-90zM405.56 630.01h90v22.51h-90z" class="cls-18"/><circle cx="416.32" cy="540" r="11.25" class="cls-10"/><circle cx="441.09" cy="540" r="2.81" class="cls-18"/><circle cx="457.97" cy="540" r="2.81" class="cls-18"/><path d="M393.93 585.02h112.5v44.99h-112.5zM393.93 652.52h112.5v44.99h-112.5z" class="cls-21"/><path d="M472.57 534.4h22.5v11.24h-22.5z" class="cls-11"/><circle cx="416.32" cy="607.5" r="11.25" class="cls-17"/><circle cx="441.09" cy="607.5" r="2.81" class="cls-18"/><circle cx="457.97" cy="607.5" r="2.81" class="cls-18"/><path d="M472.57 601.9h22.5v11.24h-22.5z" class="cls-11"/><circle cx="416.32" cy="675.01" r="11.25" class="cls-17"/><circle cx="441.09" cy="675.01" r="2.81" class="cls-18"/><circle cx="457.97" cy="675.01" r="2.81" class="cls-18"/><path d="M472.57 669.41h22.5v11.24h-22.5z" class="cls-11"/><path d="m1057.5 405.68-92.91-45v22.5H90v45h874.59v22.5z" class="cls-13"/><path d="M675 337.5V360h-22.5v-22.5z" class="cls-16"/><path d="M720 337.5V360h-22.5v-22.5z" class="cls-10"/><path d="M832.5 360h-86.28v-22.5h86.28z" class="cls-21"/><path d="M922.5 337.5V360h-45v-22.5z" class="cls-16"/><path d="M675 450.02v22.5h-22.5v-22.5z" class="cls-21"/><path d="M922.5 450.02v22.5H900v-22.5z" class="cls-16"/><path d="M877.5 472.52h-86.28v-22.5h86.28z" class="cls-10"/><path d="M765 450.02v22.5h-45v-22.5z" class="cls-16"/><path d="M427.5 202.51V225H360l-22.5-22.49z" class="cls-3"/><path d="M585 135c0 24.79-20.01 67.5-157.5 67.5H315c-72.19 0-180.38-25.21-180-67.5-.38-42.29 107.81-67.5 180-67.5h112.5C564.99 67.5 585 110.21 585 135" style="fill:#008657"/><g style="clip-path:url(#clippath-4)"><path d="M585 157.26H135V112.5h450z" class="cls-16"/><path d="M585 112.38H135V67.62h450z" class="cls-9"/><path d="M585 202.5h-45v-135h45zM180 202.5h-45v-135h45z" class="cls-20"/></g><path d="M585 135c0 24.79-20.01 67.5-157.5 67.5H315c-72.19 0-180.38-25.21-180-67.5-.38-42.29 107.81-67.5 180-67.5h112.5C564.99 67.5 585 110.21 585 135Z" class="cls-20"/><path d="M427.5 213.75H405" class="cls-9"/><circle cx="379.69" cy="214" r="2.81" class="cls-18"/><circle cx="393.75" cy="214" r="2.81" class="cls-18"/><path d="m258.75 112.5-45-45h-45v45z" class="cls-26"/><path d="M168.75 67.5h22.54v45h-22.54z" class="cls-13" style="clip-path:url(#clippath-5)" transform="rotate(-180 180.02 90)"/><path d="m258.75 112.5-45-45h-45v45z" class="cls-20"/><path d="m258.75 157.5-45 45h-45v-45z" class="cls-26"/><path d="M168.75 157.5h22.54v45h-22.54z" class="cls-13" style="clip-path:url(#clippath-6)" transform="rotate(-180 180.02 180)"/><path d="m258.75 157.5-45 45h-45v-45z" class="cls-20"/><path d="M191.29 247.5v202.51M540 224.76v225.25" class="cls-2"/><path d="M180 450.01h382.5v22.51H180z" class="cls-16"/><path d="m270 348.75-18.15-11.25H225V405h90v-56.25z" class="cls-10"/><path d="M225 360h90v56.25h-90z" class="cls-16"/><path d="m270 382.5-18.15-11.25H225v67.5h90V382.5z" class="cls-21"/><path d="M225 393.75h90V450h-90z" class="cls-16"/><path d="m360 315-18.15-11.25H315v67.5h90V315z" class="cls-13"/><path d="M315 326.25h90v56.25h-90z" class="cls-16"/><path d="m360 348.75-18.15-11.25H315V405h90v-56.25z" class="cls-12"/><path d="M315 360h90v56.25h-90z" class="cls-16"/><path d="m360 382.5-18.15-11.25H315v67.5h90V382.5z" class="cls-21"/><path d="M315 393.75h90V450h-90z" class="cls-16"/><path d="m447.92 315-18.15-11.25h-26.85v67.5h90V315z" class="cls-13"/><path d="M402.92 326.25h90v56.25h-90z" class="cls-16"/><path d="m447.92 348.75-18.15-11.25h-26.85V405h90v-56.25z" class="cls-12"/><path d="M402.92 360h90v56.25h-90z" class="cls-16"/><path d="m447.92 382.5-18.15-11.25h-26.85v67.5h90V382.5z" class="cls-12"/><path d="M402.92 393.75h90V450h-90z" class="cls-16"/><path d="M787.5 292.75c0-15.98 12.95-28.93 28.93-28.93 7.7 0 14.7 3.02 19.88 7.93a43.4 43.4 0 0 1 9.16-11.43c1.81-30.32 26.97-54.35 57.74-54.35 31.95 0 57.86 25.9 57.86 57.86 15.98 0 28.93 12.95 28.93 28.93H787.5Z" class="cls-2"/><path d="M112.5 806.78H135v28.93h-22.5zM146.25 720h22.5v28.93h-22.5z" class="cls-21"/><path d="M112.5 763.39H135v28.93h-22.5z" class="cls-10"/><path d="M112.5 893.56H135v28.93h-22.5z" class="cls-16"/><path d="M146.25 864.64h22.5v28.93h-22.5z" class="cls-10"/><path d="M180 821.25h22.5v28.93H180z" class="cls-16"/><path d="M180 893.56h22.5v28.93H180z" class="cls-21"/><path d="M191.25 864.64v14.46M191.25 720v86.78M157.5 763.39v86.78M123.75 850.17v28.93M123.75 720v28.93M157.5 908.03v14.46" class="cls-16"/><circle cx="337.49" cy="675.07" r="22.49" class="cls-21"/><path d="M270.01 652.58H315v44.99h-44.99z" class="cls-16"/><circle cx="315" cy="539.92" r="22.49" class="cls-21"/><circle cx="326.54" cy="607.54" r="22.49" class="cls-21"/><path d="M292.5 517.43H315v44.99h-22.5zM281.26 585.05h33.73v44.88h-33.73z" class="cls-16"/><rect width="134.93" height="22.5" x="315.07" y="821.27" rx="10.21" ry="10.21" style="fill:#fff"/><path d="M315.07 821.25H405v22.52h-89.93z" class="cls-21" style="clip-path:url(#clippath-7)"/><rect width="134.93" height="22.5" x="315.07" y="821.27" class="cls-20" rx="10.21" ry="10.21"/><circle cx="776.25" cy="776.27" r="94.52" class="cls-12"/><path d="M770.68 628.59v11.82l11.82-5.91zM947.53 770.34h-11.81l5.91 11.82z" class="cls-14"/><path d="M782.16 924.16v-11.81l-11.82 5.91z" style="stroke-miterlimit:10;stroke-width:4px;fill:#fe7c3f;stroke:#fe7c3f"/><path d="M610.87 776.27c0 91.33 74.04 165.38 165.38 165.38 79.92 0 146.6-56.69 162.02-132.05" style="stroke-miterlimit:10;stroke-width:4px;fill:none;stroke:#efefef"/><path d="M941.63 776.27c0-91.33-74.04-165.38-165.38-165.38-79.92 0-146.6 56.69-162.02 132.05" class="cls-4"/><path d="M605.25 774.83h11.25l-5.63-11.25z" style="stroke-miterlimit:10;stroke-width:4px;fill:#efefef;stroke:#efefef"/><path d="M270.01 821.28h22.49v22.49h-22.49z" class="cls-12"/><path d="M472.57 821.28h22.49v22.49h-22.49z" class="cls-21"/><path d="M811.71 776.21v-35.42h-70.92v35.42" class="cls-17"/><path d="M740.79 764.43v47.28h70.92v-47.28" class="cls-21"/><path d="M811.71 752.62h11.79v-23.64l19.57-19.56M811.71 776.21h35.4v-23.59l15.29-15.29M811.71 799.88h25.28v23.62h21.16M799.88 740.79v-35.42l15.27-15.27M776.25 740.79v-59.04M742.5 731.23v-24.14l-20.93-20.94M731.23 742.5H707.1V720l-11.84-11.84M731.23 765.02H697.5l-20.24 20.24M731.23 787.5H720V810l-18.66 18.66M742.5 798.75v53.46M776.25 811.71v35.42h23.63v20.69M799.88 811.71v11.79l30.36 30.37" class="cls-20"/><circle cx="677.26" cy="785.26" r="11.25" class="cls-19"/><circle cx="695.26" cy="708.16" r="11.25" class="cls-19"/><circle cx="721.57" cy="686.15" r="11.25" class="cls-21"/><circle cx="776.25" cy="681.75" r="11.81" class="cls-17"/><circle cx="815.15" cy="690.1" r="11.81" class="cls-19"/><circle cx="843.07" cy="709.42" r="11.81" class="cls-21"/><circle cx="862.4" cy="737.33" r="11.81" class="cls-10"/><circle cx="858.38" cy="823.44" r="11.81" class="cls-19"/><circle cx="830.24" cy="853.87" r="11.81" class="cls-19"/><circle cx="799.88" cy="867.82" r="11.81" class="cls-21"/><circle cx="742.5" cy="852.21" r="11.25" class="cls-10"/><circle cx="701.34" cy="828.66" r="11.25" class="cls-21"/></g></svg>