<svg xmlns="http://www.w3.org/2000/svg" id="Artwork" viewBox="0 0 40 40"><defs><style>.cls-1{fill:#efefef;stroke-width:0}</style></defs><path d="M16.99 33h16.02v2H16.99zM11.41 35h-6.4v-6.41L27.9 5.68a3.02 3.02 0 0 1 4.21-.04l2.29 2.21a2.993 2.993 0 0 1 .03 4.29L11.41 34.99Zm-4.4-2h3.58l22.43-22.27c.19-.19.3-.45.29-.72a1 1 0 0 0-.3-.71l-2.29-2.21c-.39-.38-1.02-.37-1.4.01L7.01 29.41z" class="cls-1"/><path d="M14 32.01h-2V30h-2v-2H8v-2h4v2h2zM25.794 9.206l1.414-1.414 5.24 5.24-1.415 1.413z" class="cls-1"/><path d="m10.448 28.258 17.84-17.84 1.415 1.414-17.84 17.84z" class="cls-1"/></svg>