<svg xmlns="http://www.w3.org/2000/svg" id="Artwork" viewBox="0 0 40 40"><defs><style>.cls-1{fill:#efefef;stroke-width:0}</style></defs><path d="M20 37c-9.37 0-17-7.63-17-17S10.63 3 20 3s17 7.63 17 17-7.63 17-17 17m0-32C11.73 5 5 11.73 5 20s6.73 15 15 15 15-6.73 15-15S28.27 5 20 5" class="cls-1"/><path d="M20 33c-7.17 0-13-5.83-13-13S12.83 7 20 7s13 5.83 13 13-5.83 13-13 13m0-24C13.93 9 9 13.93 9 20s4.93 11 11 11 11-4.93 11-11S26.07 9 20 9" class="cls-1"/><path d="M29 21h-2.16l-3-1h-7.68l-3 1H11v-2h1.84l3-1h8.32l3 1H29zM19 32h-2v-5c0-1.65-1.35-3-3-3h-3v-2h3c2.76 0 5 2.24 5 5zM23 32h-2v-5c0-2.76 2.24-5 5-5h3v2h-3c-1.65 0-3 1.35-3 3zM19 21h2v2h-2z" class="cls-1"/></svg>