<svg xmlns="http://www.w3.org/2000/svg" id="Artwork" viewBox="0 0 40 40"><defs><style>.cls-1{fill:#efefef;stroke-width:0}</style></defs><path d="M30 25H10V15h20zm-18-2h16v-6H12z" class="cls-1"/><path d="M24 19h2v2h-2zM18 19h5v2h-5zM30 37H10V27h20zm-18-2h16v-6H12z" class="cls-1"/><path d="M24 31h2v2h-2zM18 31h5v2h-5zM24 24h2v3.79h-2zM24 12h2v4h-2z" class="cls-1"/><path d="M23 11h4v2h-4z" class="cls-1"/><path d="M37 22h-4.96v-2H35v-3c0-2.21-1.79-4-4-4h-1V8c0-2.21-1.79-4-4-4H15c-2.21 0-4 1.79-4 4v3H9c-2.21 0-4 1.79-4 4v5h3v2H3v-7c0-3.31 2.69-6 6-6V8c0-3.31 2.69-6 6-6h11c3.31 0 6 2.69 6 6v3.08c2.83.48 5 2.95 5 5.92z" class="cls-1"/></svg>