<svg xmlns="http://www.w3.org/2000/svg" id="Artwork" viewBox="0 0 40 40"><defs><style>.cls-1{fill:#0c322c;stroke-width:0}</style></defs><path d="M11 7h2v4h-2zM14.99 7h2v4h-2zM32 36H17c-2.21 0-4-1.79-4-4v-3h2v3c0 1.1.9 2 2 2h15c1.1 0 2-.9 2-2s-.9-2-2-2h-2c-2.21 0-4-1.79-4-4s1.79-4 4-4h2c1.1 0 2-.9 2-2s-.9-2-2-2h-2v-5h2v3c2.21 0 4 1.79 4 4s-1.79 4-4 4h-2c-1.1 0-2 .9-2 2s.9 2 2 2h2c2.21 0 4 1.79 4 4s-1.79 4-4 4" class="cls-1"/><path d="M31 14c-2.21 0-4-1.79-4-4s1.79-4 4-4 4 1.79 4 4-1.79 4-4 4m0-6c-1.1 0-2 .9-2 2s.9 2 2 2 2-.9 2-2-.9-2-2-2M8 24h12v2H8zM11 22H7.28L5 15.16V12c0-2.21 1.79-4 4-4v2c-1.1 0-2 .9-2 2v2.84L8.72 20H11zM20.72 22H17v-2h2.28L21 14.84V12c0-1.1-.9-2-2-2V8c2.21 0 4 1.79 4 4v3.16zM11 28h6v2h-6z" class="cls-1"/></svg>