<svg xmlns="http://www.w3.org/2000/svg" id="Artwork" viewBox="0 0 40 40"><defs><style>.cls-1{fill:#efefef;stroke-width:0}</style></defs><path d="M12 12H4V4h8zm-6-2h4V6H6zM12 24H4v-8h8zm-6-2h4v-4H6zM12 36H4v-8h8zm-6-2h4v-4H6zM24 12h-8V4h8zm-6-2h4V6h-4zM24 24h-8v-8h8zm-6-2h4v-4h-4zM24 36h-8v-8h8zm-6-2h4v-4h-4zM36 12h-8V4h8zm-6-2h4V6h-4zM36 24h-8v-8h8zm-6-2h4v-4h-4zM36 36h-8v-8h8zm-6-2h4v-4h-4z" class="cls-1"/><path d="m10.294 16.291 6.003-6.003 1.414 1.414-6.003 6.003z" class="cls-1"/><path d="m10.294 11.709 1.414-1.414 6.003 6.003-1.414 1.414zM10.299 23.704l1.414-1.414 6.004 6.003-1.415 1.415z" class="cls-1"/><path d="m10.299 28.286 6.003-6.003 1.415 1.414-6.004 6.004zM22.294 23.709l1.415-1.414 5.996 5.996-1.414 1.414z" class="cls-1"/><path d="m22.294 28.291 5.997-5.996 1.414 1.414-5.996 5.996zM22.289 11.704l1.414-1.415 5.997 5.997-1.415 1.414z" class="cls-1"/><path d="m22.299 16.286 5.996-5.997 1.415 1.415-5.997 5.996z" class="cls-1"/></svg>