<svg xmlns="http://www.w3.org/2000/svg" id="Artwork" viewBox="0 0 40 40"><defs><style>.cls-1{fill:#efefef;stroke-width:0}</style></defs><path d="M13 16h-2v-6c0-2.76 2.24-5 5-5h9c2.76 0 5 2.24 5 5v3h-2v-3c0-1.65-1.35-3-3-3h-9c-1.65 0-3 1.35-3 3z" class="cls-1"/><path d="M34 34H14.67l2.08-7.27A3 3 0 0 1 15 24v-1c0-1.65 1.35-3 3-3h4c1.65 0 3 1.35 3 3v1c0 1.22-.73 2.27-1.78 2.74l.75 3.02-1.94.48L20.72 25H22c.55 0 1-.45 1-1v-1c0-.55-.45-1-1-1h-4c-.55 0-1 .45-1 1v1c0 .55.45 1 1 1h1.33l-2 7H32V17H8v17H6V15h28z" class="cls-1"/></svg>