<svg xmlns="http://www.w3.org/2000/svg" id="Artwork" viewBox="0 0 40 40"><defs><style>.cls-1{fill:#0c322c;stroke-width:0}</style></defs><path d="M29 36H6.92l5.01-6.26L10 20v-9.41L17.59 3H26v2h-7.59L12 11.41v8.49l2.07 10.36L11.08 34H29z" class="cls-1"/><path d="m23.95 35.32-1.9-.64L25 25.84v-9.56l-2.86-4.77 1.72-1.02L27 15.72v10.44z" class="cls-1"/><path d="M23.33 12h-3.64l-3.25-2.17 1.11-1.66L20.3 10h2.36l2.33-1.75V3h7v2.5L23.32 12ZM27 5v1.75L29.33 5z" class="cls-1"/><path d="M20 6h2v2h-2zM20.78 31H16v-8h2v6h1.22l.78-3.12V16h2l-.03 10.24z" class="cls-1"/></svg>