<svg xmlns="http://www.w3.org/2000/svg" id="Artwork" viewBox="0 0 40 40"><defs><style>.cls-1{fill:#0c322c;stroke-width:0}</style></defs><path d="m10.45 24.32-2.74-6.86 14.56-6.24 1.97-3.93 6.11-3.66 7.07 11.78-7.27 3.64-5.03-1.01-14.66 6.28Zm-.16-5.79 1.26 3.14 13.34-5.72 4.97.99 4.73-2.36-4.93-8.22-3.89 2.34-2.03 4.07-13.44 5.76ZM8 34h24v2H8z" class="cls-1"/><path d="m13.93 35.37-1.86-.74 6.15-15.38 3.61-1.6 6.11 17.01-1.88.68-5.39-14.99-.89.4zM5.563 23.096l4.523-2.201.875 1.798-4.522 2.201zM4 22.55V16h2v3.45l2.99-1.36.82 1.82z" class="cls-1"/><path d="M3 15h4v2H3zM21.952 12.482l1.81-.85 2.319 4.944-1.811.85z" class="cls-1"/></svg>