<svg xmlns="http://www.w3.org/2000/svg" id="Artwork" viewBox="0 0 40 40"><defs><style>.cls-1{fill:#efefef;stroke-width:0}</style></defs><path d="M27 36H13v-2.47L19.62 28h.36c6.07 0 11-4.93 11-11s-4.93-11-11-11-11 4.93-11 11c0 3.54 1.72 6.88 4.6 8.95l-1.17 1.62A13.04 13.04 0 0 1 6.98 17c0-7.17 5.83-13 13-13s13 5.83 13 13-5.63 12.8-12.63 12.99L15.56 34H27z" class="cls-1"/><path d="M7.6 30.89a4.598 4.598 0 0 1-3.74-1.94c-.74-1.05-1-2.37-.73-3.62a4.6 4.6 0 0 1 2.18-2.98l.28-.16 1 1.73-.28.16c-.64.37-1.07.96-1.23 1.68s-.01 1.44.41 2.04 1.05.98 1.78 1.07c.72.09 1.43-.11 1.99-.58L34.33 7.26l1.29 1.53-25.07 21.03a4.63 4.63 0 0 1-2.95 1.07" class="cls-1"/><path d="M37 12h-2V8h-4V6h6z" class="cls-1"/></svg>