<svg xmlns="http://www.w3.org/2000/svg" id="Artwork" viewBox="0 0 40 40"><defs><style>.cls-1{fill:#0c322c;stroke-width:0}</style></defs><path d="M21 21h-6c-1.65 0-3-1.35-3-3v-3h2v3c0 .55.45 1 1 1h6c.55 0 1-.45 1-1v-3h2v3c0 1.65-1.35 3-3 3" class="cls-1"/><path d="M24.81 36H3.86l3.26-25h22.85zM6.14 34h17.05l4.33-21H8.88z" class="cls-1"/><path d="M35.14 36H25l4.2-5.6 1.6 1.2L29 34h3.86l-2.74-21H27v-2h4.88zM14 11.36h-2V6c0-1.65 1.35-3 3-3h6c1.65 0 3 1.35 3 3v5.36h-2V6c0-.55-.45-1-1-1h-6c-.55 0-1 .45-1 1z" class="cls-1"/></svg>