<svg xmlns="http://www.w3.org/2000/svg" id="Artwork" viewBox="0 0 40 40"><defs><style>.cls-1{fill:#0c322c;stroke-width:0}</style></defs><path d="M25 11H15V8.72L18.43 3h3.13l3.43 5.72V11Zm-7.83-2h5.67l-2.4-4h-.87zM22 27h-4c-1.65 0-3-1.35-3-3v-3h10v3c0 1.65-1.35 3-3 3m-5-4v1c0 .55.45 1 1 1h4c.55 0 1-.45 1-1v-1z" class="cls-1"/><path d="M25 23H15V9h10zm-8-2h6V11h-6z" class="cls-1"/><path d="M19 13h2v16h-2zM12 29h-2V15.43l5.49-3.29 1.02 1.72L12 16.57zM30 29h-2V16.57l-4.51-2.71 1.02-1.72L30 15.43zM32 18h2v14.49h-2zM6 18h2v14.49H6zM19 31h2v3h-2zM10 34h20v2H10z" class="cls-1"/></svg>