<svg xmlns="http://www.w3.org/2000/svg" id="Artwork" viewBox="0 0 40 40"><defs><style>.cls-1{fill:#2453ff;stroke-width:0}</style></defs><path d="M28.03 22.98H22v-2h5.21l8.19-8.19 1.41 1.41zM5.94 19.98h-2V4.01h24.09l3.28 3.28-1.41 1.42-2.69-2.7H5.94z" class="cls-1"/><path d="M19 37.41 5.59 24 22.62 6.96h13.41v13.41L18.99 37.41ZM8.41 24 19 34.59l15.04-15.04V8.96H23.45z" style="stroke-width:0;fill:#30ba78"/><path d="M29.5 16a2.5 2.5 0 0 1 0-5 2.5 2.5 0 0 1 0 5m0-3c-.28 0-.5.22-.5.5s.22.5.5.5.5-.22.5-.5-.22-.5-.5-.5" class="cls-1"/></svg>