<svg xmlns="http://www.w3.org/2000/svg" id="Artwork" viewBox="0 0 40 40"><defs><style>.cls-1,.cls-2{fill:#fe7c3f;stroke-width:0}.cls-2{fill:#efefef}</style></defs><path d="M34 21H6v-4h2v2h24v-2h2zM30 17h-2v-2c0-4.41-3.59-8-8-8s-8 3.59-8 8v2h-2v-2c0-5.51 4.49-10 10-10s10 4.49 10 10z" class="cls-2"/><path d="M22.41 13h-4.82l-4.3-4.29 1.42-1.42 3.7 3.71h3.18l3.7-3.71 1.42 1.42z" class="cls-2"/><path d="m13.26 33.85-4.71-4.71 4.71-4.71 1.41 1.41-3.29 3.3 3.29 3.29zM26.35 33.85l-1.41-1.42 3.29-3.29-3.29-3.3 1.41-1.41 4.71 4.71zM15.124 34.595l7.003-11 1.687 1.074-7.003 11z" class="cls-1"/><path d="M18 4h4v2h-4z" class="cls-2"/><path d="M17 15h6v2h-6z" class="cls-1"/></svg>