<svg xmlns="http://www.w3.org/2000/svg" id="Artwork" viewBox="0 0 40 40"><defs><style>.cls-1,.cls-2{fill:#2453ff;stroke-width:0}.cls-2{fill:#efefef}</style></defs><path d="M12 36h-2V22.62l-4 2V36H4V23.38l8-4z" class="cls-2"/><path d="M18 36h-2V22.62l-4 2V36h-2V23.38l8-4z" class="cls-2"/><path d="M24 36h-2V22.62l-4 2V36h-2V23.38l8-4z" class="cls-2"/><path d="M36 36H22V23h14zm-12-2h10v-9H24z" class="cls-2"/><path d="M33.01 24.16 31.15 13H28.8l-1.82 8.22-1.96-.44L27.2 11h5.65l2.14 12.84z" class="cls-2"/><path d="m21 9.2-3-2-3 2-3.56-2.37 1.11-1.66L15 6.8l3-2 3 2 3-2 3 2 3-2 3.55 2.37-1.1 1.66L30 7.2l-3 2-3-2zM9 14.2l-3.55-2.37 1.1-1.66L9 11.8l3-2 3 2 3-2 3 2 2.45-1.63 1.1 1.66L21 14.2l-3-2-3 2-3-2z" class="cls-1"/></svg>