<svg xmlns="http://www.w3.org/2000/svg" id="Artwork" viewBox="0 0 40 40"><defs><style>.cls-1,.cls-2{fill:#fe7c3f;stroke-width:0}.cls-2{fill:#efefef}</style></defs><path d="M20 26c-3.31 0-6-2.69-6-6s2.69-6 6-6h1v2h-1c-2.21 0-4 1.79-4 4s1.79 4 4 4 4-1.79 4-4v-1h2v1c0 3.31-2.69 6-6 6" class="cls-2"/><path d="M20 30c-5.51 0-10-4.49-10-10 0-5.18 3.95-9.45 9-9.95V3h2v9h-1c-4.41 0-8 3.59-8 8s3.59 8 8 8 8-3.59 8-8v-1h9v2h-7.05c-.5 5.05-4.77 9-9.95 9" class="cls-2"/><path d="M19 29.34h2V37h-2zM3 19h7.66v2H3z" class="cls-2"/><path d="m20.71 20.71-1.42-1.42 8.71-8.7v-3l4.29-4.3 1.42 1.42L30 8.41v3z" class="cls-1"/><path d="M32.41 12H29v-2h2.59l3.7-3.71 1.42 1.42z" class="cls-1"/><path d="M20 26c-3.31 0-6-2.69-6-6s2.69-6 6-6h1v2h-1c-2.21 0-4 1.79-4 4s1.79 4 4 4 4-1.79 4-4v-1h2v1c0 3.31-2.69 6-6 6" class="cls-2"/><path d="M20 34c-7.72 0-14-6.28-14-14S12.28 6 20 6v2C13.38 8 8 13.38 8 20s5.38 12 12 12 12-5.38 12-12h2c0 7.72-6.28 14-14 14" class="cls-2"/><path d="M21 12c-.81-.01-1.56 0-2 .06V3h2zM28 19c.01.81 0 1.56-.06 2H37v-2zM12.07 21.03H3v-2.06h9.07S12 19.28 12 20s.07 1.03.07 1.03M21.03 27.94v9.07h-2.06v-9.07s.31.07 1.03.07 1.03-.07 1.03-.07" class="cls-1"/></svg>