<svg xmlns="http://www.w3.org/2000/svg" id="Artwork" viewBox="0 0 40 40"><defs><style>.cls-1{fill:#2453ff;stroke-width:0}</style></defs><path d="M19 34h-1V22H6v-1c0-7.17 5.83-13 13-13s13 5.83 13 13-5.83 13-13 13M8.04 20H20v11.96c5.6-.51 10-5.23 10-10.96 0-6.07-4.93-11-11-11-5.73 0-10.45 4.4-10.96 10" style="stroke-width:0;fill:#30ba78"/><path d="M16.01 38h-1c-7.17 0-13-5.83-13-13v-1h14zM4.06 26c.48 5.27 4.69 9.48 9.96 9.96V26zM22.82 16.57l-1.64-1.14L28.48 5H38v2h-8.48z" class="cls-1"/><path d="M30 9h8v2h-8zM33 13h5v2h-5z" class="cls-1"/></svg>