<svg xmlns="http://www.w3.org/2000/svg" id="Artwork" viewBox="0 0 40 40"><defs><style>.cls-1,.cls-2{fill:#2453ff;stroke-width:0}.cls-2{fill:#30ba78}</style></defs><path d="m8.291 29.289 4.498-4.497 1.414 1.414-4.497 4.497zM6.312 25.317l3.5-3.5 1.414 1.414-3.5 3.5zM16.296 33.291l2.998-2.998 1.415 1.415-2.999 2.998zM11.305 32.316l4.498-4.497 1.414 1.414-4.497 4.497zM16 21.41 11.59 17l5-5h5l6.37-6.37 9.51 8.32-6.46 6.46L28.6 18h-9.17l-3.41 3.41ZM14.41 17 16 18.59 18.59 16h10.83l1.59 1.59 3.54-3.54-6.49-5.68L22.43 14h-5l-3 3Z" class="cls-1"/><path d="M21.29 34.71 10.13 23.54l-1-3L3.58 15 13 5.59 15.41 8H20v2h-5.41L13 8.41 6.41 15l4.46 4.46 1 3 10.84 10.83z" class="cls-2"/><path d="m20.286 27.707 1.415-1.415 4.999 5-1.414 1.414zM23.299 24.709l1.414-1.414 6.003 6.003-1.414 1.414zM26.286 21.701l1.415-1.414 4.999 5-1.414 1.414z" class="cls-2"/></svg>