<svg xmlns="http://www.w3.org/2000/svg" id="Artwork" viewBox="0 0 40 40"><defs><style>.cls-1,.cls-2{fill:#30ba78;stroke-width:0}.cls-2{fill:#0c322c}</style></defs><path d="M19 6.21h2V35h-2zM17 35H4v-2h11V19c0-.55-.45-1-1-1H6v-2h8c1.65 0 3 1.35 3 3z" class="cls-2"/><path d="m9.92 22.81-5.78-5.79 5.78-5.78 1.42 1.41-4.37 4.37 4.37 4.37zM24.36 11.45l-4.37-4.38-4.37 4.38-1.41-1.42 5.78-5.78 5.79 5.78z" class="cls-1"/><path d="M36 35H23v-9c0-1.65 1.35-3 3-3h8.05v2H26c-.55 0-1 .45-1 1v7h11z" class="cls-2"/><path d="m31.12 29.91-1.41-1.42 4.37-4.37-4.37-4.37 1.41-1.41 5.79 5.78z" class="cls-1"/></svg>