<svg xmlns="http://www.w3.org/2000/svg" id="Artwork" viewBox="0 0 40 40"><defs><style>.cls-1,.cls-2{fill:#30ba78;stroke-width:0}.cls-2{fill:#fe7c3f}</style></defs><path d="M12 12H4V4h8zm-6-2h4V6H6z" class="cls-2"/><path d="M12 24H4v-8h8zm-6-2h4v-4H6z" class="cls-1"/><path d="M12 36H4v-8h8zm-6-2h4v-4H6z" class="cls-2"/><path d="M24 12h-8V4h8zm-6-2h4V6h-4z" class="cls-1"/><path d="M24 24h-8v-8h8zm-6-2h4v-4h-4z" class="cls-2"/><path d="M24 36h-8v-8h8zm-6-2h4v-4h-4z" class="cls-1"/><path d="M36 12h-8V4h8zm-6-2h4V6h-4z" class="cls-2"/><path d="M36 24h-8v-8h8zm-6-2h4v-4h-4z" class="cls-1"/><path d="M36 36h-8v-8h8zm-6-2h4v-4h-4z" class="cls-2"/><path d="m10.294 16.291 6.003-6.003 1.414 1.414-6.003 6.003z" class="cls-1"/><path d="m10.294 11.709 1.414-1.414 6.003 6.003-1.414 1.414z" class="cls-2"/><path d="m10.299 23.704 1.414-1.414 6.004 6.003-1.415 1.415z" class="cls-1"/><path d="m10.299 28.286 6.003-6.003 1.415 1.414-6.004 6.004z" class="cls-2"/><path d="m22.294 28.291 5.997-5.996 1.414 1.414-5.996 5.996z" class="cls-1"/><path d="m22.294 23.709 1.415-1.414 5.996 5.996-1.414 1.414z" class="cls-2"/><path d="m22.289 11.704 1.414-1.415 5.997 5.997-1.415 1.414z" class="cls-1"/><path d="m22.299 16.286 5.996-5.997 1.415 1.415-5.997 5.996z" class="cls-2"/></svg>