<svg xmlns="http://www.w3.org/2000/svg" id="Artwork" viewBox="0 0 40 40"><defs><style>.cls-1,.cls-2{fill:#2453ff;stroke-width:0}.cls-2{fill:#efefef}</style></defs><path d="M29 16h-2c0-3.86-3.14-7-7-7s-7 3.14-7 7h-2c0-4.96 4.04-9 9-9s9 4.04 9 9M9 18h22v2H9zM27 28h9v2h-9zM5 28h8v2H5z" class="cls-2"/><path d="M18 3h4v2h-4z" class="cls-1"/><path d="M11 19h2v7h-2zM27 19h2v7h-2zM23 19h2v5h-2zM19 19h2v5h-2zM15 19h2v5h-2zM11 29h2v7h-2zM7 29h2v7H7zM27 29h2v7h-2zM31 29h2v7h-2z" class="cls-2"/><path d="M25 36h-2v-7.22l-3-.75-3 .75V36h-2v-8.78l5-1.25 5 1.25z" class="cls-1"/></svg>