<svg xmlns="http://www.w3.org/2000/svg" id="Artwork" viewBox="0 0 40 40"><defs><style>.cls-1,.cls-2{fill:#30ba78;stroke-width:0}.cls-2{fill:#fe7c3f}</style></defs><path d="M26 36H14v-2h10v-2h-5.85L15.8 17.09l1.97-.31L19.85 30H26z" class="cls-1"/><path d="M14 32v-3.78c-3.1-2.02-5-5.5-5-9.22 0-6.07 4.93-11 11-11s11 4.93 11 11c0 3.49-1.6 6.7-4.4 8.8l-.27.2h-5.42l.88-11.14 1.99.16-.71 8.98h2.57a8.92 8.92 0 0 0 3.34-7c0-4.96-4.04-9-9-9s-9 4.04-9 9c0 3.2 1.72 6.19 4.5 7.8l.5.29v4.92h-2Z" class="cls-2"/><path d="M19 3h2v3h-2zM33.04 18.95h3v2h-3zM4.04 18.95h3v2h-3z" class="cls-1"/><path d="m28.519 29.858 1.414-1.414 3.811 3.812-1.414 1.414zM6.327 7.668l1.414-1.414 3.805 3.804-1.414 1.415zM28.52 10.055l3.768-3.77L33.702 7.7l-3.769 3.769zM6.287 32.289l3.846-3.847 1.415 1.414L7.7 33.703z" class="cls-2"/></svg>