<svg xmlns="http://www.w3.org/2000/svg" id="Artwork" viewBox="0 0 40 40"><defs><style>.cls-1,.cls-2{fill:#30ba78;stroke-width:0}.cls-2{fill:#efefef}</style></defs><path d="M35 15h-6v-2h4V4h2z" class="cls-1"/><path d="M29 18h6v2h-6zM5 18h6v2H5z" class="cls-2"/><path d="M35 34h-2v-9h-4v-2h6zM11 15H5V4h2v9h4zM7 34H5V23h6v2H7zM14.29 36.71 9.59 32l3.7-3.71 1.42 1.42-2.3 2.29 3.3 3.29zM25.71 36.71l-1.42-1.42 3.3-3.29-2.3-2.29 1.42-1.42 3.7 3.71z" class="cls-1"/><path d="M19 24h-9V11.84C10 8.07 13.07 5 16.84 5H19zm-7-2h5V7h-.16C14.17 7 12 9.17 12 11.84zM30 24h-9V5h2.16C26.93 5 30 8.07 30 11.84zm-7-2h5V11.84C28 9.17 25.83 7 23.16 7H23z" class="cls-2"/><path d="M21 32h-2c-4.96 0-9-4.04-9-9v-1h20v1c0 4.96-4.04 9-9 9m-8.93-8c.49 3.39 3.41 6 6.93 6h2c3.52 0 6.44-2.61 6.93-6z" class="cls-2"/></svg>