<svg xmlns="http://www.w3.org/2000/svg" id="Artwork" viewBox="0 0 40 40"><defs><style>.cls-1,.cls-2{fill:#30ba78;stroke-width:0}.cls-2{fill:#fe7c3f}</style></defs><path d="M20.32 33h-.64c-1.61 0-3.15-.7-4.21-1.92l-3.1-3.56a5.6 5.6 0 0 1-1.38-3.69V19c0-4.96 4.04-9 9-9s9 4.04 9 9v4.83c0 1.36-.49 2.67-1.38 3.69l-3.1 3.57A5.57 5.57 0 0 1 20.32 33M20 12c-3.86 0-7 3.14-7 7v4.83c0 .87.32 1.72.89 2.38l3.1 3.56c.68.78 1.66 1.23 2.7 1.23h.64c1.03 0 2.01-.45 2.68-1.22l3.1-3.57c.57-.66.89-1.5.89-2.38V19c0-3.86-3.14-7-7-7" class="cls-1"/><path d="M14 29h2v8h-2zM24 29h2v8h-2z" class="cls-1"/><path d="M15 18h2v7h-2zM19 15h2v10h-2zM23 18h2v7h-2z" class="cls-2"/><path d="m29.19 33.44-1.41-1.41 3.54-3.54-1.52-1.52.42-.67c.67-1.09 1.17-2.28 1.46-3.52l.18-.77h2.15v-4h-2.15l-.18-.77c-.29-1.24-.79-2.43-1.46-3.52l-.42-.67 1.52-1.52-2.83-2.83-1.52 1.52-.67-.42c-1.09-.68-2.28-1.17-3.52-1.46l-.77-.18V6.01h-4v2.15l-.77.18c-1.24.29-2.43.79-3.52 1.46l-.67.42-1.52-1.52-2.83 2.83 1.52 1.52-.42.67c-.67 1.09-1.17 2.28-1.46 3.52l-.18.77H6.01v4h2.15l.18.77c.29 1.24.78 2.43 1.46 3.52l.42.67-1.52 1.52 3.54 3.54-1.41 1.41-4.95-4.95 1.84-1.84c-.46-.85-.83-1.73-1.1-2.65H4.03v-8h2.59c.27-.92.64-1.8 1.1-2.65l-1.84-1.84 5.66-5.66 1.84 1.84c.84-.46 1.73-.83 2.65-1.1V4h8v2.59c.92.27 1.8.64 2.65 1.1l1.84-1.84 5.66 5.66-1.84 1.84c.46.85.83 1.73 1.1 2.65h2.59v8h-2.59c-.27.92-.64 1.8-1.1 2.65l1.84 1.84-4.95 4.95Z" class="cls-2"/></svg>