<svg xmlns="http://www.w3.org/2000/svg" id="Artwork" viewBox="0 0 40 40"><defs><style>.cls-1,.cls-2{fill:#2453ff;stroke-width:0}.cls-2{fill:#efefef}</style></defs><path d="M24.41 33h-5.03l-1-2h-2.76l-1 2h-5.8L3.9 23.08 8.35 13H11v2H9.65L6.1 23.03 10.06 31h3.32l1-2h5.24l1 2h2.75l2.11-3h4.11l3-3H34v-3h-1.5l-3-4h-3.88l-2.22-2.89H22v-2h2.38L26.6 16h3.9l3 4H36v7h-2.59l-3 3h-3.89z" class="cls-2"/><path d="M2 22h3v2H2z" class="cls-2"/><path d="M10 34h4v2h-4z" class="cls-1"/><path d="M12 17h9v2h-9z" class="cls-2"/><path d="M20 34h4v2h-4zM16.5 15.07c-3.03 0-5.5-2.47-5.5-5.5s2.47-5.5 5.5-5.5S22 6.54 22 9.57s-2.47 5.5-5.5 5.5m0-9c-1.93 0-3.5 1.57-3.5 3.5s1.57 3.5 3.5 3.5S20 11.5 20 9.57s-1.57-3.5-3.5-3.5" class="cls-1"/><path d="m27.02 17.43-1.81-.86L27.37 12H32v2h-3.37z" class="cls-2"/></svg>