<svg xmlns="http://www.w3.org/2000/svg" id="Artwork" viewBox="0 0 40 40"><defs><style>.cls-1,.cls-2{fill:#2453ff;stroke-width:0}.cls-2{fill:#30ba78}</style></defs><path d="M38 33H22v-2h14V10h2zM18 33H2V10h2v21h14z" class="cls-1"/><path d="M34 29H19v-2h13V8h-9.59l-.7.71-1.42-1.42L21.59 6H34z" class="cls-2"/><path d="M19.19 29H6V6h10.41l4.3 4.29-1.42 1.42L15.59 8H8v19h11.19z" class="cls-2"/><path d="M10 11h6v2h-6zM10 15h9v2h-9zM10 19h9v2h-9zM10 23h9v2h-9zM24 11h6v2h-6zM21 15h9v2h-9zM21 19h9v2h-9zM21 23h9v2h-9z" class="cls-2"/></svg>