<svg xmlns="http://www.w3.org/2000/svg" id="Artwork" viewBox="0 0 40 40"><defs><style>.cls-1,.cls-2{fill:#2453ff;stroke-width:0}.cls-2{fill:#efefef}</style></defs><path d="M36 15H5v-2h29V7H6v4H4V5h32z" class="cls-2"/><path d="M36 36H4V13h31v2H6v19h28v-9h-5v5h3v2h-5v-9h9z" class="cls-2"/><path d="M8 9h4v2H8zM14 9h4v2h-4zM9.71 28.71l-1.42-1.42 3.3-3.29-3.3-3.29 1.42-1.42 4.7 4.71zM15 26h10v2H15z" class="cls-1"/><path d="M30 24h-2v-4c0-1.65 1.35-3 3-3h1c1.65 0 3 1.35 3 3h-2c0-.55-.45-1-1-1h-1c-.55 0-1 .45-1 1z" class="cls-2"/></svg>