<svg xmlns="http://www.w3.org/2000/svg" id="Artwork" viewBox="0 0 40 40"><defs><style>.cls-1,.cls-2{fill:#30ba78;stroke-width:0}.cls-2{fill:#fe7c3f}</style></defs><path d="M21 37H6c-1.65 0-3-1.35-3-3V6c0-1.65 1.35-3 3-3h18v2H6c-.55 0-1 .45-1 1v28c0 .55.45 1 1 1h15c.55 0 1-.45 1-1v-4h2v4c0 1.65-1.35 3-3 3" class="cls-1"/><path d="m33.72 32.7-1.44-1.39 1.31-1.35-1.43-1.67.36-.62c.54-.91.92-1.86 1.17-2.91l.18-.77h2.12v-4h-2.1l-.2-.74c-.27-.99-.66-1.94-1.18-2.81l-.36-.61 1.48-1.78-2.69-2.69-1.72 1.53-.63-.37c-.89-.52-1.85-.92-2.85-1.18l-.75-.19V8.98h-4.03v2.17l-.75.19c-1 .26-1.96.65-2.85 1.18l-.63.37-1.72-1.53-2.69 2.69 1.48 1.78-.36.61c-.52.88-.92 1.82-1.18 2.81l-.2.74h-2.1v4h2.12l.18.77c.25 1.04.64 1.99 1.17 2.91l.38.64-1.47 1.6 1.32 1.32-1.41 1.41-2.68-2.68 1.78-1.94c-.34-.65-.61-1.33-.83-2.03H7.95v-8h2.59c.22-.67.5-1.32.82-1.95L9.6 13.93l5.31-5.31 2.05 1.83c.63-.33 1.29-.6 1.97-.82V6.99h8.03v2.64c.68.22 1.34.49 1.97.82l2.05-1.83 5.31 5.31-1.76 2.11c.32.63.6 1.28.82 1.95h2.59v8h-2.57c-.22.72-.5 1.4-.84 2.06l1.7 1.98-2.58 2.65Z" class="cls-2"/><path d="M22 14h2v3h-2zM15 21h3v2h-3zM28 21h3v2h-3zM25.832 17.751l2.121-2.121 1.415 1.414-2.122 2.121zM16.626 17.045l1.414-1.414 2.122 2.12-1.414 1.415z" class="cls-2"/><path d="m17.35 29.07-.71-.71c-3.51-3.51-3.51-9.21 0-12.72s9.21-3.51 12.72 0 3.51 9.21 0 12.72l-.71.71-2.82-2.82 1.41-1.41 1.36 1.36a6.995 6.995 0 1 0-11.21 0l6.89-6.89 1.41 1.41-8.36 8.36Z" class="cls-2"/><path d="m17.35 29.07 8.36-8.36-1.41-1.41-8.32 8.32c.3.39.79.9 1.37 1.45" class="cls-1"/></svg>