<svg xmlns="http://www.w3.org/2000/svg" id="Artwork" viewBox="0 0 40 40"><defs><style>.cls-1,.cls-2{fill:#30ba78;stroke-width:0}.cls-2{fill:#efefef}</style></defs><path d="M37 23h-9.96v-2H35v-3.04A3.97 3.97 0 0 0 31.04 14h-1L30 13V8c0-2.21-1.79-4-4-4H15c-2.21 0-4 1.79-4 4v4H8.96A3.97 3.97 0 0 0 5 15.96V21h8v2H3v-7.04C3 12.67 5.67 10 8.96 10H9V8c0-3.31 2.69-6 6-6h11c3.31 0 6 2.69 6 6v4.08c2.85.47 5 2.93 5 5.88z" class="cls-2"/><path d="M19 15h2v19h-2zM17 28H8v-2h7v-9h2zM32 31h-9V17h2v12h7z" class="cls-1"/><path d="M4 26h2v2H4zM19 36h2v2h-2zM34 29h2v2h-2z" class="cls-2"/></svg>