<svg xmlns="http://www.w3.org/2000/svg" id="Artwork" viewBox="0 0 40 40"><defs><style>.cls-1,.cls-2{fill:#2453ff;stroke-width:0}.cls-2{fill:#0c322c}</style></defs><path d="M31 13h2v2h-2zM19 13h2v2h-2zM24 10h4v2h-4zM7 13h2v2H7zM12 10h4v2h-4z" class="cls-1"/><path d="M37 36H27V8h10zm-8-2h6V10h-6z" class="cls-2"/><path d="M31 17h2v6h-2zM25 36H15V8h10zm-8-2h6V10h-6z" class="cls-2"/><path d="M19 17h2v6h-2zM13 36H3V8h10zm-8-2h6V10H5z" class="cls-2"/><path d="M7 17h2v6H7zM5 5h2v4H5zM17 5h2v4h-2zM29 5h2v4h-2z" class="cls-2"/></svg>