<svg xmlns="http://www.w3.org/2000/svg" id="Artwork" viewBox="0 0 40 40"><defs><style>.cls-1{fill:#30ba78;stroke-width:0}</style></defs><path d="m28 36-.09-2c3.95 0 7.09-3.14 7.09-7v-7h2v7c0 4.96-4.04 9-9 9" class="cls-1"/><path d="M27 33h2v4h-2zM14 20h2v7h-2zM33 27h-2v-7.5c0-3.03-2.47-5.5-5.5-5.5S20 16.47 20 19.5V27h-2v-7.5c0-4.14 3.36-7.5 7.5-7.5s7.5 3.36 7.5 7.5z" class="cls-1"/><path d="M11.34 23.75 2 15.45V6.59L5.59 3h3.82L12 5.59 14.59 3h3.82L22 6.59V10h-2V7.41L17.59 5h-2.18L12 8.41 8.59 5H6.41L4 7.41v7.14l8.66 7.7z" style="stroke-width:0;fill:#0c322c"/></svg>