<svg xmlns="http://www.w3.org/2000/svg" id="Artwork" viewBox="0 0 40 40"><defs><style>.cls-1,.cls-2{fill:#fe7c3f;stroke-width:0}.cls-2{fill:#efefef}</style></defs><path d="M16.99 33h16.02v2H16.99z" class="cls-1"/><path d="M11.41 35h-6.4v-6.41L27.9 5.68a3.02 3.02 0 0 1 4.21-.04l2.29 2.21a2.993 2.993 0 0 1 .03 4.29L11.41 34.99Zm-4.4-2h3.58l22.43-22.27c.19-.19.3-.45.29-.72a1 1 0 0 0-.3-.71l-2.29-2.21c-.39-.38-1.02-.37-1.4.01L7.01 29.41z" class="cls-2"/><path d="M14 32.01h-2V30h-2v-2H8v-2h4v2h2zM25.794 9.206l1.414-1.414 5.24 5.24-1.415 1.413z" class="cls-2"/><path d="m10.448 28.258 17.84-17.84 1.415 1.414-17.84 17.84z" class="cls-2"/><path d="M5.01 31h2v4h-2z" class="cls-1"/><path d="M9 33v2H5v-2zM31.58 12.16l1.41 1.41 1.44-1.43c.58-.57.89-1.34.89-2.15s-.33-1.57-.92-2.14l-2.29-2.21c-1.17-1.13-3.06-1.12-4.21.04l-1.4 1.4 1.41 1.41 1.4-1.4c.38-.38 1.01-.39 1.4-.01L33 9.29a1.013 1.013 0 0 1 .01 1.43l-1.44 1.43Z" class="cls-1"/></svg>