<svg xmlns="http://www.w3.org/2000/svg" id="Artwork" viewBox="0 0 40 40"><defs><style>.cls-1,.cls-2{fill:#30ba78;stroke-width:0}.cls-2{fill:#fe7c3f}</style></defs><path d="M20 36H5V4h26v16h-2V6H7v28h13z" class="cls-1"/><path d="M27 16H9V8h18v4h-2v-2H11v4h16zM9 18h4v2H9zM16 18h4v2h-4zM23 18h4v2h-4zM9 22h4v2H9zM16 22h4v2h-4zM9 26h4v2H9zM16 26h4v2h-4zM9 30h4v2H9zM16 30h4v2h-4z" class="cls-1"/><path d="M25 27c-1.1 0-2-.9-2-2s.9-2 2-2 2 .9 2 2-.9 2-2 2M32.09 34.09c-1.1 0-2-.9-2-2s.9-2 2-2 2 .9 2 2-.9 2-2 2M23.29 32.29l9.002-9.001 1.414 1.414-9.001 9.001z" class="cls-2"/></svg>