<svg xmlns="http://www.w3.org/2000/svg" id="Artwork" viewBox="0 0 40 40"><defs><style>.cls-1,.cls-2{fill:#2453ff;stroke-width:0}.cls-2{fill:#30ba78}</style></defs><path d="M27 11h2v2h-2zM15 11h10v2H15zM27 4h2v4h-2z" class="cls-2"/><path d="M19 15h2v19h-2z" class="cls-1"/><path d="M17 28H8v-2h7v-9H6V7h28v10h-7v-2h5V9H8v6h9z" class="cls-2"/><path d="M32 31h-9V15h2v14h7z" class="cls-1"/><path d="M4.04 26h2v2h-2zM19 36h2v2h-2zM34 29h2v2h-2z" class="cls-2"/><path d="M15 15h2v13h-2z" class="cls-1"/><path d="M16.4 26v2H8.03v-2z" class="cls-1"/></svg>