<svg xmlns="http://www.w3.org/2000/svg" id="Artwork" viewBox="0 0 40 40"><defs><style>.cls-1,.cls-3{fill:#30ba78;stroke-width:0}.cls-3{fill:#efefef}</style></defs><path d="M21 29H4V7h14v2H6v18h15zM38 29h-5v-2h3v-4h2z" class="cls-3"/><path d="M9 11h7v2H9zM9 15h7v2H9zM9 19h7v2H9zM9 23h7v2H9z" class="cls-3"/><path d="M27 23c-4.69 0-8.5-3.81-8.5-8.5S22.31 6 27 6s8.5 3.81 8.5 8.5S31.69 23 27 23m0-15c-3.58 0-6.5 2.92-6.5 6.5S23.42 21 27 21s6.5-2.92 6.5-6.5S30.58 8 27 8" style="stroke-width:0;fill:#fe7c3f"/><path d="m34 30.87-4-2.67-4 2.67V24h2v3.13l2-1.33 2 1.33V19h2z" class="cls-1"/><path d="M20 35.87V19h2v13.13l1.93-1.28 4.52 2.25-.9 1.79-3.48-1.74z" class="cls-1"/><path d="M27 23c-4.69 0-8.5-3.81-8.5-8.5S22.31 6 27 6s8.5 3.81 8.5 8.5S31.69 23 27 23m0-15c-3.58 0-6.5 2.92-6.5 6.5S23.42 21 27 21s6.5-2.92 6.5-6.5S30.58 8 27 8" class="cls-1"/></svg>